<svg width="56" height="56" viewBox="0 0 56 56" fill="none" xmlns="http://www.w3.org/2000/svg">
<circle cx="28" cy="28" r="27" stroke="#4D5D45" stroke-width="2"/>
<path d="M39.8973 24.9383C39.4355 24.4643 38.9616 23.966 38.7793 23.5407C38.597 23.1153 38.6092 22.4834 38.597 21.8393C38.5848 20.6605 38.5605 19.3115 37.6248 18.3758C36.689 17.44 35.3401 17.4157 34.1612 17.4035C33.5171 17.3914 32.8609 17.3792 32.4598 17.2212C32.0588 17.0633 31.5362 16.565 31.0623 16.1032C30.2237 15.3011 29.2637 14.3896 27.9998 14.3896C26.7359 14.3896 25.7758 15.3011 24.9373 16.1032C24.4633 16.565 23.9651 17.039 23.5397 17.2212C23.1144 17.4035 22.4824 17.3914 21.8383 17.4035C20.6595 17.4157 19.3105 17.44 18.3748 18.3758C17.439 19.3115 17.4147 20.6605 17.4026 21.8393C17.3904 22.4834 17.3783 23.1396 17.2203 23.5407C17.0623 23.9417 16.564 24.4643 16.1022 24.9383C15.3001 25.7768 14.3887 26.7369 14.3887 28.0008C14.3887 29.2646 15.3001 30.2247 16.1022 31.0633C16.564 31.5372 17.038 32.0355 17.2203 32.4608C17.4026 32.8862 17.3904 33.5181 17.4026 34.1622C17.4147 35.341 17.439 36.69 18.3748 37.6258C19.3105 38.5615 20.6595 38.5858 21.8383 38.598C22.4824 38.6101 23.1387 38.6223 23.5397 38.7803C23.9408 38.9383 24.4633 39.4365 24.9373 39.8983C25.7758 40.7004 26.7359 41.6119 27.9998 41.6119C29.2637 41.6119 30.2237 40.7004 31.0623 39.8983C31.5362 39.4365 32.0345 38.9626 32.4598 38.7803C32.8852 38.598 33.5171 38.6101 34.1612 38.598C35.3401 38.5858 36.689 38.5615 37.6248 37.6258C38.5605 36.69 38.5848 35.341 38.597 34.1622C38.6092 33.5181 38.6213 32.8619 38.7793 32.4608C38.9373 32.0598 39.4355 31.5372 39.8973 31.0633C40.6994 30.2247 41.6109 29.2646 41.6109 28.0008C41.6109 26.7369 40.6994 25.7768 39.8973 24.9383ZM34.0154 25.789L26.8939 32.5945C26.7098 32.7677 26.4661 32.8634 26.2133 32.8619C25.9643 32.8628 25.7246 32.7669 25.5449 32.5945L21.9842 29.1917C21.8854 29.1056 21.8051 29.0003 21.748 28.8823C21.691 28.7643 21.6584 28.636 21.6522 28.5051C21.646 28.3742 21.6663 28.2433 21.712 28.1205C21.7576 27.9976 21.8277 27.8853 21.9178 27.7902C22.008 27.695 22.1165 27.6192 22.2368 27.5671C22.357 27.5149 22.4866 27.4877 22.6177 27.4869C22.7487 27.4862 22.8786 27.5119 22.9995 27.5626C23.1203 27.6133 23.2297 27.688 23.321 27.782L26.2133 30.5407L32.6786 24.3792C32.8676 24.2143 33.1131 24.1288 33.3637 24.1407C33.6143 24.1525 33.8506 24.2608 34.0232 24.4428C34.1958 24.6249 34.2914 24.8666 34.29 25.1175C34.2885 25.3683 34.1901 25.6089 34.0154 25.789Z" fill="#4D5D45"/>
</svg>
