<svg width="56" height="56" viewBox="0 0 56 56" fill="none" xmlns="http://www.w3.org/2000/svg">
<circle cx="28" cy="28" r="27" stroke="#4D5D45" stroke-width="2"/>
<path d="M27.5914 13.6105V13.6257C26.4907 15.9732 24.8531 18.0225 22.8709 19.8805L25.1629 19.6412L22.043 23.5928L23.5505 23.1124L21.5074 26.4468L22.5118 27.0449L18.547 32.6447L20.7403 32.6561L17.5996 37.7356L21.4619 37.2419L22.191 39.192L26.2281 37.6558L25.5388 42.4181H28.7555L28.3586 38.273L30.679 39.2699L31.298 37.764L33.9888 39.0382L37.4163 37.7774L35.1641 33.8828L34.4084 33.7441L34.8204 34.7886L35.297 35.9981L34.0855 35.5254L30.9923 34.3157V36.4881L30.1321 35.9659L25.9166 33.4138L24.6044 34.705L23.5088 35.7836L23.6398 34.2511L23.7689 32.753L24.8741 32.8478L25.4342 32.2953L25.7496 31.9858L26.1274 32.2136L29.8568 34.4714V32.6542L30.6315 32.9562L33.288 33.9948L32.9786 33.2105L32.6045 32.2592L33.6091 32.4433L36.3719 32.9504L34.2737 30.5843L32.8382 31.437L32.4318 31.6781L32.1204 31.3211L31.2526 30.3224L31.2659 30.3963L30.1475 30.592L29.7847 28.507L29.4353 26.4979L30.7721 28.038L32.6672 30.2179L35.3352 28.6362C33.8361 27.4487 32.9346 26.5782 32.3178 25.6701L32.3672 26.4391L32.4869 28.3228L31.3476 26.8189L29.253 24.058L27.901 26.9025L27.0598 28.6723L26.8263 26.7259L26.6136 24.9733L27.6182 24.8537L28.6283 22.7288L29.029 21.8857L29.5929 22.6282L31.112 24.6295L31.0664 23.9289L31.0114 23.0612L31.8298 23.3611L33.2139 23.8681L31.6264 21.7319L28.2332 19.9774L27.6901 21.2059L27.1033 22.5389L26.6342 21.1603L26.1804 19.8311L27.2116 19.4798L27.4375 18.9671L27.6806 18.4126L28.218 18.6917L31.2182 20.243L32.2188 19.9051C29.5804 17.8203 28.2916 15.7193 27.5913 13.6104L27.5914 13.6105Z" fill="#4D5D45"/>
</svg>
