<svg width="56" height="56" viewBox="0 0 56 56" fill="none" xmlns="http://www.w3.org/2000/svg">
<circle cx="28" cy="28" r="27" stroke="#4D5D45" stroke-width="2"/>
<g clip-path="url(#clip0_671_17969)">
<path d="M42.7777 34.2215H41.9999V28.9666C41.9999 28.3492 41.752 27.7562 41.3145 27.3187L36.4582 22.4624C36.0207 22.0249 35.4277 21.777 34.8103 21.777H32.6666V19.4437C32.6666 18.1555 31.6214 17.1104 30.3332 17.1104H17.8888C16.6006 17.1104 15.5554 18.1555 15.5554 19.4437V21.777H12.8332C12.6193 21.777 12.4443 21.952 12.4443 22.1659V22.9437C12.4443 23.1576 12.6193 23.3326 12.8332 23.3326H26.0554C26.2693 23.3326 26.4443 23.5076 26.4443 23.7215V24.4992C26.4443 24.7131 26.2693 24.8881 26.0554 24.8881H14.3888C14.1749 24.8881 13.9999 25.0631 13.9999 25.277V26.0548C13.9999 26.2687 14.1749 26.4437 14.3888 26.4437H24.4999C24.7138 26.4437 24.8888 26.6187 24.8888 26.8326V27.6103C24.8888 27.8242 24.7138 27.9992 24.4999 27.9992H12.8332C12.6193 27.9992 12.4443 28.1742 12.4443 28.3881V29.1659C12.4443 29.3798 12.6193 29.5548 12.8332 29.5548H22.9443C23.1582 29.5548 23.3332 29.7298 23.3332 29.9437V30.7215C23.3332 30.9353 23.1582 31.1103 22.9443 31.1103H15.5554V37.3326C15.5554 39.909 17.6457 41.9992 20.2221 41.9992C22.7985 41.9992 24.8888 39.909 24.8888 37.3326H31.111C31.111 39.909 33.2013 41.9992 35.7777 41.9992C38.3541 41.9992 40.4443 39.909 40.4443 37.3326H42.7777C43.2054 37.3326 43.5554 36.9826 43.5554 36.5548V34.9992C43.5554 34.5715 43.2054 34.2215 42.7777 34.2215ZM20.2221 39.6659C18.9339 39.6659 17.8888 38.6208 17.8888 37.3326C17.8888 36.0444 18.9339 34.9992 20.2221 34.9992C21.5103 34.9992 22.5554 36.0444 22.5554 37.3326C22.5554 38.6208 21.5103 39.6659 20.2221 39.6659ZM35.7777 39.6659C34.4895 39.6659 33.4443 38.6208 33.4443 37.3326C33.4443 36.0444 34.4895 34.9992 35.7777 34.9992C37.0659 34.9992 38.111 36.0444 38.111 37.3326C38.111 38.6208 37.0659 39.6659 35.7777 39.6659ZM39.6665 29.5548H32.6666V24.1103H34.8103L39.6665 28.9666V29.5548Z" fill="#4D5D45"/>
</g>
<defs>
<clipPath id="clip0_671_17969">
<rect width="31.1111" height="24.8889" fill="white" transform="translate(12.4443 17.1104)"/>
</clipPath>
</defs>
</svg>
